<svg xmlns="http://www.w3.org/2000/svg" width="687" height="451" version="1.1" desc="Created with imagetracer.js version 1.2.6"><path fill="rgb(0,0,0)" stroke="rgb(0,0,0)" stroke-width="1" opacity="0" d="M 0 0 L 131 0.5 L 111.5 3 L 89.5 10 L 71.5 20 L 55 33 L 55 34.5 L 41 49.5 L 33 61.5 Q 23.5 77 17 95.5 L 9 123.5 L 5 144.5 L 3 167.5 L 2 168.5 L 0.5 197 L 0 0 Z "/><path fill="rgb(0,0,0)" stroke="rgb(0,0,0)" stroke-width="1" opacity="0" d="M 158.5 0 L 513 0.5 Q 495.1 33.6 467.5 57 Q 431.8 89.8 385 111.5 L 385 162.5 L 387.5 163 Q 448.1 138.6 493.5 99 L 494 444 L 547.5 444 L 548 443.5 L 548 0 L 687 0 L 687 451 L 162.5 451 L 162.5 450 L 174.5 449 L 197.5 442 Q 220.4 432.4 236 415.5 Q 249.9 400.9 260 382.5 L 270 360.5 L 277 338.5 L 283 310.5 L 285 289.5 L 286 288.5 L 286 279.5 L 287 278.5 L 289 213.5 L 288 212.5 L 288 186.5 L 287 185.5 L 287 172.5 L 286 171.5 L 285 153.5 L 279 121.5 L 274 104.5 Q 265.5 78 252 56.5 Q 242 40 227.5 28 L 201.5 11 L 185.5 5 L 166.5 1 L 158.5 1 L 158.5 0 Z "/><path fill="rgb(0,0,0)" stroke="rgb(0,0,0)" stroke-width="1" opacity="0" d="M 134.5 45 L 151.5 45 L 170.5 50 Q 188.3 57.7 200 71.5 Q 210 82 216 96.5 L 225 126.5 L 228 143.5 L 229 158.5 L 230 159.5 L 230 169.5 L 231 170.5 L 231 184.5 L 232 185.5 L 232 224.5 L 233 225.5 L 232 226.5 L 232 264.5 L 231 265.5 L 230 290.5 L 229 291.5 L 227 313.5 L 222 336.5 L 216 354.5 L 210 366.5 Q 200.6 381.1 187.5 392 L 170.5 402 L 156.5 406 L 142.5 407 L 141.5 406 L 127.5 405 L 108.5 397 Q 96.8 389.8 88 379.5 Q 77.4 367.6 71 351.5 L 62 317.5 L 60 297.5 L 59 296.5 L 59 287.5 L 58 286.5 L 58 275.5 L 57 274.5 L 57 255.5 L 56 254.5 L 56 199.5 L 57 198.5 L 57 180.5 L 58 179.5 L 58 168.5 L 59 167.5 L 60 150.5 L 64 127.5 L 69 108.5 Q 77.4 79.9 96.5 62 Q 105.5 54 117.5 49 L 134.5 45 Z "/><path fill="rgb(0,0,0)" stroke="rgb(0,0,0)" stroke-width="1" opacity="0" d="M 0.5 254 L 1 270.5 L 2 271.5 L 2 281.5 L 3 282.5 L 5 305.5 L 9 326.5 L 16 352.5 L 30 385.5 Q 40.4 404.6 55.5 419 Q 70.1 433.4 90.5 442 L 113.5 449 L 126 450.5 L 0 451 L 0.5 254 Z "/><path fill="rgb(0,0,0)" stroke="rgb(0,0,0)" stroke-width="1" opacity="0.9921568627450981" d="M 131.5 0 L 157.5 0 L 158.5 1 L 166.5 1 L 191.5 7 Q 222.6 18.9 242 42.5 Q 254.2 57.8 263 76.5 L 272 98.5 L 279 121.5 L 284 146.5 L 286 171.5 L 287 172.5 L 289 235.5 L 288 236.5 L 288 264.5 L 287 265.5 L 287 278.5 L 286 279.5 L 285 296.5 L 284 297.5 L 284 303.5 L 280 326.5 L 275 345.5 Q 261.7 391.2 231.5 420 Q 213.4 437.4 186.5 446 L 161.5 451 L 126.5 451 L 125.5 450 L 113.5 449 L 90.5 442 Q 67.2 431.8 51 414.5 Q 35.2 397.8 25 375.5 L 16 352.5 L 9 326.5 L 5 305.5 L 3 282.5 L 2 281.5 L 2 271.5 L 1 270.5 L 1 254.5 L 0 253.5 L 0 197.5 L 1 196.5 L 1 180.5 L 2 179.5 L 2 168.5 L 3 167.5 L 5 144.5 L 9 123.5 L 17 95.5 Q 23.5 77 33 61.5 L 41 49.5 L 55 34.5 L 55 33 L 71.5 20 L 89.5 10 L 111.5 3 L 121.5 1 L 130.5 1 L 131.5 0 Z M 135 45 L 118 49 Q 106 54 97 62 Q 77 80 69 109 L 64 128 L 60 151 L 59 168 L 58 169 L 58 180 L 57 181 L 57 199 L 56 200 L 56 255 L 57 256 L 57 275 L 58 276 L 58 287 L 59 288 L 59 297 L 60 298 L 62 318 L 71 352 Q 77 368 88 380 Q 97 390 109 397 L 128 405 L 142 406 L 143 407 L 157 406 L 171 402 L 188 392 Q 201 381 210 367 L 216 355 L 222 337 L 227 314 L 229 292 L 230 291 L 231 266 L 232 265 L 232 227 L 233 226 L 232 225 L 232 186 L 231 185 L 231 171 L 230 170 L 230 160 L 229 159 L 228 144 L 225 127 L 216 97 Q 210 82 200 72 Q 188 58 171 50 L 152 45 L 135 45 Z "/><path fill="rgb(0,0,0)" stroke="rgb(0,0,0)" stroke-width="1" opacity="0.9921568627450981" d="M 513.5 0 L 547.5 0 L 548 0.5 L 548 444 L 494.5 444 L 494 443.5 L 494 99.5 L 492.5 100 Q 446.7 139.9 385 163 L 385 111.5 L 386.5 110 Q 446.6 82.6 488 36.5 Q 502.8 20.3 513.5 0 Z "/></svg>
<path xmlns="http://www.w3.org/2000/svg" fill="rgb(0,0,0)" stroke="rgb(0,0,0)" stroke-width="1" opacity="0" d="M 0 0 L 131 0.5 L 111.5 3 L 89.5 10 L 71.5 20 L 55 33 L 55 34.5 L 41 49.5 L 33 61.5 Q 23.5 77 17 95.5 L 9 123.5 L 5 144.5 L 3 167.5 L 2 168.5 L 0.5 197 L 0 0 Z "/>
<path xmlns="http://www.w3.org/2000/svg" fill="rgb(0,0,0)" stroke="rgb(0,0,0)" stroke-width="1" opacity="0" d="M 158.5 0 L 513 0.5 Q 495.1 33.6 467.5 57 Q 431.8 89.8 385 111.5 L 385 162.5 L 387.5 163 Q 448.1 138.6 493.5 99 L 494 444 L 547.5 444 L 548 443.5 L 548 0 L 687 0 L 687 451 L 162.5 451 L 162.5 450 L 174.5 449 L 197.5 442 Q 220.4 432.4 236 415.5 Q 249.9 400.9 260 382.5 L 270 360.5 L 277 338.5 L 283 310.5 L 285 289.5 L 286 288.5 L 286 279.5 L 287 278.5 L 289 213.5 L 288 212.5 L 288 186.5 L 287 185.5 L 287 172.5 L 286 171.5 L 285 153.5 L 279 121.5 L 274 104.5 Q 265.5 78 252 56.5 Q 242 40 227.5 28 L 201.5 11 L 185.5 5 L 166.5 1 L 158.5 1 L 158.5 0 Z "/>
<path xmlns="http://www.w3.org/2000/svg" fill="rgb(0,0,0)" stroke="rgb(0,0,0)" stroke-width="1" opacity="0" d="M 134.5 45 L 151.5 45 L 170.5 50 Q 188.3 57.7 200 71.5 Q 210 82 216 96.5 L 225 126.5 L 228 143.5 L 229 158.5 L 230 159.5 L 230 169.5 L 231 170.5 L 231 184.5 L 232 185.5 L 232 224.5 L 233 225.5 L 232 226.5 L 232 264.5 L 231 265.5 L 230 290.5 L 229 291.5 L 227 313.5 L 222 336.5 L 216 354.5 L 210 366.5 Q 200.6 381.1 187.5 392 L 170.5 402 L 156.5 406 L 142.5 407 L 141.5 406 L 127.5 405 L 108.5 397 Q 96.8 389.8 88 379.5 Q 77.4 367.6 71 351.5 L 62 317.5 L 60 297.5 L 59 296.5 L 59 287.5 L 58 286.5 L 58 275.5 L 57 274.5 L 57 255.5 L 56 254.5 L 56 199.5 L 57 198.5 L 57 180.5 L 58 179.5 L 58 168.5 L 59 167.5 L 60 150.5 L 64 127.5 L 69 108.5 Q 77.4 79.9 96.5 62 Q 105.5 54 117.5 49 L 134.5 45 Z "/>
<path xmlns="http://www.w3.org/2000/svg" fill="rgb(0,0,0)" stroke="rgb(0,0,0)" stroke-width="1" opacity="0" d="M 0.5 254 L 1 270.5 L 2 271.5 L 2 281.5 L 3 282.5 L 5 305.5 L 9 326.5 L 16 352.5 L 30 385.5 Q 40.4 404.6 55.5 419 Q 70.1 433.4 90.5 442 L 113.5 449 L 126 450.5 L 0 451 L 0.5 254 Z "/>
<path xmlns="http://www.w3.org/2000/svg" fill="rgb(0,0,0)" stroke="rgb(0,0,0)" stroke-width="1" opacity="0.9921568627450981" d="M 131.5 0 L 157.5 0 L 158.5 1 L 166.5 1 L 191.5 7 Q 222.6 18.9 242 42.5 Q 254.2 57.8 263 76.5 L 272 98.5 L 279 121.5 L 284 146.5 L 286 171.5 L 287 172.5 L 289 235.5 L 288 236.5 L 288 264.5 L 287 265.5 L 287 278.5 L 286 279.5 L 285 296.5 L 284 297.5 L 284 303.5 L 280 326.5 L 275 345.5 Q 261.7 391.2 231.5 420 Q 213.4 437.4 186.5 446 L 161.5 451 L 126.5 451 L 125.5 450 L 113.5 449 L 90.5 442 Q 67.2 431.8 51 414.5 Q 35.2 397.8 25 375.5 L 16 352.5 L 9 326.5 L 5 305.5 L 3 282.5 L 2 281.5 L 2 271.5 L 1 270.5 L 1 254.5 L 0 253.5 L 0 197.5 L 1 196.5 L 1 180.5 L 2 179.5 L 2 168.5 L 3 167.5 L 5 144.5 L 9 123.5 L 17 95.5 Q 23.5 77 33 61.5 L 41 49.5 L 55 34.5 L 55 33 L 71.5 20 L 89.5 10 L 111.5 3 L 121.5 1 L 130.5 1 L 131.5 0 Z M 135 45 L 118 49 Q 106 54 97 62 Q 77 80 69 109 L 64 128 L 60 151 L 59 168 L 58 169 L 58 180 L 57 181 L 57 199 L 56 200 L 56 255 L 57 256 L 57 275 L 58 276 L 58 287 L 59 288 L 59 297 L 60 298 L 62 318 L 71 352 Q 77 368 88 380 Q 97 390 109 397 L 128 405 L 142 406 L 143 407 L 157 406 L 171 402 L 188 392 Q 201 381 210 367 L 216 355 L 222 337 L 227 314 L 229 292 L 230 291 L 231 266 L 232 265 L 232 227 L 233 226 L 232 225 L 232 186 L 231 185 L 231 171 L 230 170 L 230 160 L 229 159 L 228 144 L 225 127 L 216 97 Q 210 82 200 72 Q 188 58 171 50 L 152 45 L 135 45 Z "/>
<path xmlns="http://www.w3.org/2000/svg" fill="rgb(0,0,0)" stroke="rgb(0,0,0)" stroke-width="1" opacity="0.9921568627450981" d="M 513.5 0 L 547.5 0 L 548 0.5 L 548 444 L 494.5 444 L 494 443.5 L 494 99.5 L 492.5 100 Q 446.7 139.9 385 163 L 385 111.5 L 386.5 110 Q 446.6 82.6 488 36.5 Q 502.8 20.3 513.5 0 Z "/>
<svg xmlns="http://www.w3.org/2000/svg" width="687" height="451" version="1.1" desc="Created with imagetracer.js version 1.2.6"><path fill="rgb(0,0,0)" stroke="rgb(0,0,0)" stroke-width="1" opacity="0" d="M 0 0 L 131 0.5 L 111.5 3 L 89.5 10 L 71.5 20 L 55 33 L 55 34.5 L 41 49.5 L 33 61.5 Q 23.5 77 17 95.5 L 9 123.5 L 5 144.5 L 3 167.5 L 2 168.5 L 0.5 197 L 0 0 Z "/><path fill="rgb(0,0,0)" stroke="rgb(0,0,0)" stroke-width="1" opacity="0" d="M 158.5 0 L 513 0.5 Q 495.1 33.6 467.5 57 Q 431.8 89.8 385 111.5 L 385 162.5 L 387.5 163 Q 448.1 138.6 493.5 99 L 494 444 L 547.5 444 L 548 443.5 L 548 0 L 687 0 L 687 451 L 162.5 451 L 162.5 450 L 174.5 449 L 197.5 442 Q 220.4 432.4 236 415.5 Q 249.9 400.9 260 382.5 L 270 360.5 L 277 338.5 L 283 310.5 L 285 289.5 L 286 288.5 L 286 279.5 L 287 278.5 L 289 213.5 L 288 212.5 L 288 186.5 L 287 185.5 L 287 172.5 L 286 171.5 L 285 153.5 L 279 121.5 L 274 104.5 Q 265.5 78 252 56.5 Q 242 40 227.5 28 L 201.5 11 L 185.5 5 L 166.5 1 L 158.5 1 L 158.5 0 Z "/><path fill="rgb(0,0,0)" stroke="rgb(0,0,0)" stroke-width="1" opacity="0" d="M 134.5 45 L 151.5 45 L 170.5 50 Q 188.3 57.7 200 71.5 Q 210 82 216 96.5 L 225 126.5 L 228 143.5 L 229 158.5 L 230 159.5 L 230 169.5 L 231 170.5 L 231 184.5 L 232 185.5 L 232 224.5 L 233 225.5 L 232 226.5 L 232 264.5 L 231 265.5 L 230 290.5 L 229 291.5 L 227 313.5 L 222 336.5 L 216 354.5 L 210 366.5 Q 200.6 381.1 187.5 392 L 170.5 402 L 156.5 406 L 142.5 407 L 141.5 406 L 127.5 405 L 108.5 397 Q 96.8 389.8 88 379.5 Q 77.4 367.6 71 351.5 L 62 317.5 L 60 297.5 L 59 296.5 L 59 287.5 L 58 286.5 L 58 275.5 L 57 274.5 L 57 255.5 L 56 254.5 L 56 199.5 L 57 198.5 L 57 180.5 L 58 179.5 L 58 168.5 L 59 167.5 L 60 150.5 L 64 127.5 L 69 108.5 Q 77.4 79.9 96.5 62 Q 105.5 54 117.5 49 L 134.5 45 Z "/><path fill="rgb(0,0,0)" stroke="rgb(0,0,0)" stroke-width="1" opacity="0" d="M 0.5 254 L 1 270.5 L 2 271.5 L 2 281.5 L 3 282.5 L 5 305.5 L 9 326.5 L 16 352.5 L 30 385.5 Q 40.4 404.6 55.5 419 Q 70.1 433.4 90.5 442 L 113.5 449 L 126 450.5 L 0 451 L 0.5 254 Z "/><path fill="rgb(0,0,0)" stroke="rgb(0,0,0)" stroke-width="1" opacity="0.9921568627450981" d="M 131.5 0 L 157.5 0 L 158.5 1 L 166.5 1 L 191.5 7 Q 222.6 18.9 242 42.5 Q 254.2 57.8 263 76.5 L 272 98.5 L 279 121.5 L 284 146.5 L 286 171.5 L 287 172.5 L 289 235.5 L 288 236.5 L 288 264.5 L 287 265.5 L 287 278.5 L 286 279.5 L 285 296.5 L 284 297.5 L 284 303.5 L 280 326.5 L 275 345.5 Q 261.7 391.2 231.5 420 Q 213.4 437.4 186.5 446 L 161.5 451 L 126.5 451 L 125.5 450 L 113.5 449 L 90.5 442 Q 67.2 431.8 51 414.5 Q 35.2 397.8 25 375.5 L 16 352.5 L 9 326.5 L 5 305.5 L 3 282.5 L 2 281.5 L 2 271.5 L 1 270.5 L 1 254.5 L 0 253.5 L 0 197.5 L 1 196.5 L 1 180.5 L 2 179.5 L 2 168.5 L 3 167.5 L 5 144.5 L 9 123.5 L 17 95.5 Q 23.5 77 33 61.5 L 41 49.5 L 55 34.5 L 55 33 L 71.5 20 L 89.5 10 L 111.5 3 L 121.5 1 L 130.5 1 L 131.5 0 Z M 135 45 L 118 49 Q 106 54 97 62 Q 77 80 69 109 L 64 128 L 60 151 L 59 168 L 58 169 L 58 180 L 57 181 L 57 199 L 56 200 L 56 255 L 57 256 L 57 275 L 58 276 L 58 287 L 59 288 L 59 297 L 60 298 L 62 318 L 71 352 Q 77 368 88 380 Q 97 390 109 397 L 128 405 L 142 406 L 143 407 L 157 406 L 171 402 L 188 392 Q 201 381 210 367 L 216 355 L 222 337 L 227 314 L 229 292 L 230 291 L 231 266 L 232 265 L 232 227 L 233 226 L 232 225 L 232 186 L 231 185 L 231 171 L 230 170 L 230 160 L 229 159 L 228 144 L 225 127 L 216 97 Q 210 82 200 72 Q 188 58 171 50 L 152 45 L 135 45 Z "/><path fill="rgb(0,0,0)" stroke="rgb(0,0,0)" stroke-width="1" opacity="0.9921568627450981" d="M 513.5 0 L 547.5 0 L 548 0.5 L 548 444 L 494.5 444 L 494 443.5 L 494 99.5 L 492.5 100 Q 446.7 139.9 385 163 L 385 111.5 L 386.5 110 Q 446.6 82.6 488 36.5 Q 502.8 20.3 513.5 0 Z "/></svg>